<svg width="145" height="118" viewBox="0 0 145 118" fill="none" xmlns="http://www.w3.org/2000/svg">
<rect x="1.5" y="1.5" width="142" height="69" stroke="#D9D9D9" stroke-width="3"/>
<path d="M10.4449 83H132.712L145 118H0L10.4449 83Z" fill="#D9D9D9"/>
<path d="M18.4091 29V17.3636H19.8182V22.5455H26.0227V17.3636H27.4318V29H26.0227V23.7955H19.8182V29H18.4091ZM29.6165 18.6136V17.3636H38.3438V18.6136H34.6847V29H33.2756V18.6136H29.6165ZM40.5185 17.3636H42.2003L46.1548 27.0227H46.2912L50.2457 17.3636H51.9276V29H50.6094V20.1591H50.4957L46.8594 29H45.5866L41.9503 20.1591H41.8366V29H40.5185V17.3636ZM54.7528 29V17.3636H56.1619V27.75H61.571V29H54.7528Z" fill="black"/>
<path d="M91.7727 33.1818C90.9545 33.1818 90.25 32.9886 89.6591 32.6023C89.0682 32.2159 88.6136 31.6837 88.2955 31.0057C87.9773 30.3277 87.8182 29.553 87.8182 28.6818C87.8182 27.7955 87.9811 27.0133 88.3068 26.3352C88.6364 25.6534 89.0947 25.1212 89.6818 24.7386C90.2727 24.3523 90.9621 24.1591 91.75 24.1591C92.3636 24.1591 92.9167 24.2727 93.4091 24.5C93.9015 24.7273 94.3049 25.0455 94.6193 25.4545C94.9337 25.8636 95.1288 26.3409 95.2045 26.8864H93.8636C93.7614 26.4886 93.5341 26.1364 93.1818 25.8295C92.8333 25.5189 92.3636 25.3636 91.7727 25.3636C91.25 25.3636 90.7917 25.5 90.3977 25.7727C90.0076 26.0417 89.7027 26.4223 89.483 26.9148C89.267 27.4034 89.1591 27.9773 89.1591 28.6364C89.1591 29.3106 89.2652 29.8977 89.4773 30.3977C89.6932 30.8977 89.9962 31.286 90.3864 31.5625C90.7803 31.839 91.2424 31.9773 91.7727 31.9773C92.1212 31.9773 92.4375 31.9167 92.7216 31.7955C93.0057 31.6742 93.2462 31.5 93.4432 31.2727C93.6402 31.0455 93.7803 30.7727 93.8636 30.4545H95.2045C95.1288 30.9697 94.9413 31.4337 94.642 31.8466C94.3466 32.2557 93.9545 32.5814 93.4659 32.8239C92.9811 33.0625 92.4167 33.1818 91.7727 33.1818ZM100.574 32.2045V24.7045H101.847V32.2045H100.574ZM97.4602 29.0909V27.8182H104.96V29.0909H97.4602ZM111.121 32.2045V24.7045H112.393V32.2045H111.121ZM108.007 29.0909V27.8182H115.507V29.0909H108.007Z" fill="black"/>
<path d="M50.2273 56.2727V44.2727H51.5227V45.6591H51.6818C51.7803 45.5076 51.9167 45.3144 52.0909 45.0795C52.2689 44.8409 52.5227 44.6288 52.8523 44.4432C53.1856 44.2538 53.6364 44.1591 54.2045 44.1591C54.9394 44.1591 55.5871 44.3428 56.1477 44.7102C56.7083 45.0777 57.1458 45.5985 57.4602 46.2727C57.7746 46.947 57.9318 47.7424 57.9318 48.6591C57.9318 49.5833 57.7746 50.3845 57.4602 51.0625C57.1458 51.7367 56.7102 52.2595 56.1534 52.6307C55.5966 52.9981 54.9545 53.1818 54.2273 53.1818C53.6667 53.1818 53.2178 53.089 52.8807 52.9034C52.5436 52.714 52.2841 52.5 52.1023 52.2614C51.9205 52.0189 51.7803 51.8182 51.6818 51.6591H51.5682V56.2727H50.2273ZM51.5455 48.6364C51.5455 49.2955 51.642 49.8769 51.8352 50.3807C52.0284 50.8807 52.3106 51.2727 52.6818 51.5568C53.053 51.8371 53.5076 51.9773 54.0455 51.9773C54.6061 51.9773 55.0739 51.8295 55.4489 51.5341C55.8277 51.2348 56.1117 50.8333 56.3011 50.3295C56.4943 49.822 56.5909 49.2576 56.5909 48.6364C56.5909 48.0227 56.4962 47.4697 56.3068 46.9773C56.1212 46.4811 55.839 46.089 55.4602 45.8011C55.0852 45.5095 54.6136 45.3636 54.0455 45.3636C53.5 45.3636 53.0417 45.5019 52.6705 45.7784C52.2992 46.0511 52.0189 46.4337 51.8295 46.9261C51.6402 47.4148 51.5455 47.9848 51.5455 48.6364ZM61.3182 47.75V53H59.9773V41.3636H61.3182V45.6364H61.4318C61.6364 45.1856 61.9432 44.8277 62.3523 44.5625C62.7652 44.2936 63.3144 44.1591 64 44.1591C64.5947 44.1591 65.1155 44.2784 65.5625 44.517C66.0095 44.7519 66.3561 45.1136 66.6023 45.6023C66.8523 46.0871 66.9773 46.7045 66.9773 47.4545V53H65.6364V47.5455C65.6364 46.8523 65.4564 46.3163 65.0966 45.9375C64.7405 45.5549 64.2462 45.3636 63.6136 45.3636C63.1742 45.3636 62.7803 45.4564 62.4318 45.642C62.0871 45.8277 61.8144 46.0985 61.6136 46.4545C61.4167 46.8106 61.3182 47.2424 61.3182 47.75ZM69.4304 56.2727V44.2727H70.7259V45.6591H70.8849C70.9834 45.5076 71.1198 45.3144 71.294 45.0795C71.4721 44.8409 71.7259 44.6288 72.0554 44.4432C72.3887 44.2538 72.8395 44.1591 73.4077 44.1591C74.1425 44.1591 74.7902 44.3428 75.3509 44.7102C75.9115 45.0777 76.349 45.5985 76.6634 46.2727C76.9777 46.947 77.1349 47.7424 77.1349 48.6591C77.1349 49.5833 76.9777 50.3845 76.6634 51.0625C76.349 51.7367 75.9134 52.2595 75.3565 52.6307C74.7997 52.9981 74.1577 53.1818 73.4304 53.1818C72.8698 53.1818 72.4209 53.089 72.0838 52.9034C71.7467 52.714 71.4872 52.5 71.3054 52.2614C71.1236 52.0189 70.9834 51.8182 70.8849 51.6591H70.7713V56.2727H69.4304ZM70.7486 48.6364C70.7486 49.2955 70.8452 49.8769 71.0384 50.3807C71.2315 50.8807 71.5137 51.2727 71.8849 51.5568C72.2562 51.8371 72.7107 51.9773 73.2486 51.9773C73.8092 51.9773 74.277 51.8295 74.652 51.5341C75.0308 51.2348 75.3149 50.8333 75.5043 50.3295C75.6974 49.822 75.794 49.2576 75.794 48.6364C75.794 48.0227 75.6993 47.4697 75.5099 46.9773C75.3243 46.4811 75.0421 46.089 74.6634 45.8011C74.2884 45.5095 73.8168 45.3636 73.2486 45.3636C72.7031 45.3636 72.2448 45.5019 71.8736 45.7784C71.5024 46.0511 71.2221 46.4337 71.0327 46.9261C70.8433 47.4148 70.7486 47.9848 70.7486 48.6364Z" fill="black"/>
</svg>
