<svg width="69" height="45" viewBox="0 0 69 45" fill="none" xmlns="http://www.w3.org/2000/svg">
<path d="M44.3468 22.5C44.3468 33.8047 35.0936 43 23.6407 43C12.1878 43 2.93457 33.8047 2.93457 22.5C2.93457 11.1953 12.1878 2 23.6407 2C35.0936 2 44.3468 11.1953 44.3468 22.5Z" stroke="#88868A" stroke-width="4"/>
<path d="M41.3844 22.5C41.3844 32.1839 33.4572 40.0653 23.64 40.0653C13.8227 40.0653 5.89551 32.1839 5.89551 22.5C5.89551 12.8162 13.8227 4.93481 23.64 4.93481C33.4572 4.93481 41.3844 12.8162 41.3844 22.5Z" stroke="#88868A" stroke-width="4"/>
<ellipse cx="23.6405" cy="22.5" rx="7.40417" ry="7.33696" fill="#D9D9D9"/>
<rect width="4.91101" height="12.7829" transform="matrix(0.665599 -0.74631 0.752303 0.658817 8.83301 12.9586)" fill="#D9D9D9"/>
<rect x="21.1729" y="4.8913" width="4.93611" height="12.7174" fill="#D9D9D9"/>
<rect width="4.8913" height="12.8339" transform="matrix(0 -1 -1 0 19.1992 25.4348)" fill="#D9D9D9"/>
<rect width="4.8913" height="12.8339" transform="matrix(0 -1 -1 0 41.4111 25.4348)" fill="#D9D9D9"/>
<rect x="21.1729" y="27.3913" width="4.93611" height="12.7174" fill="#D9D9D9"/>
<rect width="4.91101" height="12.7829" transform="matrix(-0.665599 -0.74631 -0.752303 0.658817 38.5 12.9586)" fill="#D9D9D9"/>
<rect width="4.91101" height="12.7829" transform="matrix(-0.665599 -0.74631 -0.752303 0.658817 21.7178 27.6325)" fill="#D9D9D9"/>
<rect width="4.91101" height="12.7829" transform="matrix(0.665599 -0.74631 0.752303 0.658817 25.6152 27.6325)" fill="#D9D9D9"/>
<path d="M26.5763 22.9891C26.5763 24.5688 25.279 25.8804 23.6402 25.8804C22.0014 25.8804 20.7041 24.5688 20.7041 22.9891C20.7041 21.4094 22.0014 20.0978 23.6402 20.0978C25.279 20.0978 26.5763 21.4094 26.5763 22.9891Z" fill="#D9D9D9" stroke="white" stroke-width="4"/>
<rect x="57.7002" y="16.1413" width="6.41695" height="18.0978" fill="#D9D9D9"/>
<ellipse cx="60.9087" cy="33.9945" rx="3.20847" ry="3.17935" fill="#D9D9D9"/>
<path d="M68.065 9.89239C68.065 13.4648 65.5758 16.6304 63.8818 16.6304C62.1878 16.6304 63.8819 13.4648 63.8819 9.89239C63.8819 6.31994 63.8821 3.42389 64.9972 3.42389C66.6912 3.42389 68.065 6.31994 68.065 9.89239Z" fill="#D9D9D9"/>
<path d="M54.7377 12.0885C54.7377 15.7933 57.227 19.0761 58.921 19.0761C60.615 19.0761 58.9209 15.7933 58.9209 12.0885C58.9209 8.38374 58.9207 5.38043 57.8055 5.38043C56.1115 5.38043 54.7377 8.38374 54.7377 12.0885Z" fill="#D9D9D9"/>
<path d="M67.0786 11.25C67.0786 15.032 64.3161 18.0978 60.9084 18.0978C57.5007 18.0978 54.7383 15.032 54.7383 11.25C54.7383 11.25 57.5007 11.25 60.9084 11.25C64.3161 11.25 67.0786 11.25 67.0786 11.25Z" fill="#D9D9D9"/>
<path d="M62.63 33.9946C62.63 34.9298 61.8637 35.6957 60.9088 35.6957C59.9538 35.6957 59.1875 34.9298 59.1875 33.9946C59.1875 33.0594 59.9538 32.2935 60.9088 32.2935C61.8637 32.2935 62.63 33.0594 62.63 33.9946Z" fill="#D9D9D9" stroke="white"/>
</svg>
