<svg width="118" height="94" viewBox="0 0 118 94" fill="none" xmlns="http://www.w3.org/2000/svg">
<path d="M100 46C100 46 77.6142 46 50 46C22.3858 46 0 46 0 46C0 20.5949 22.3858 0 50 0C77.6142 0 100 20.5949 100 46Z" fill="#444754"/>
<path d="M12 54.6167C12 54.6167 28.7893 54.6167 49.5 54.6167C70.2107 54.6167 87 54.6167 87 54.6167C87 76.0913 70.2107 93.4999 49.5 93.4999C28.7893 93.4999 12 76.0913 12 54.6167Z" fill="#D9D9D9"/>
<rect width="50.1582" height="12.5082" transform="matrix(-0.479592 -0.877492 0.813528 -0.581526 107.056 83.0314)" fill="#D9D9D9"/>
<ellipse cx="6.5113" cy="6.37861" rx="6.5113" ry="6.37861" transform="matrix(-0.599202 -0.800598 0.714616 -0.699517 81.8027 31.6523)" fill="#D9D9D9"/>
</svg>
