<svg width="120" height="120" viewBox="0 0 120 120" fill="none" xmlns="http://www.w3.org/2000/svg">
<circle cx="60" cy="60" r="58.5" stroke="#D9D9D9" stroke-width="3"/>
<rect x="59" y="5" width="5" height="20" fill="#D9D9D9"/>
<path d="M68.7624 63.4739C64.7489 73.4959 60.7524 74.2008 55.6177 72.1445C50.483 70.0883 46.7958 66.3064 50.8092 56.2844C67.8377 50.7173 65.017 33.7952 70.1517 35.8514C75.2863 37.9077 63.3124 50.1437 68.7624 63.4739Z" fill="#D9D9D9"/>
<rect x="107.563" y="32" width="5" height="20" transform="rotate(61.422 107.563 32)" fill="#D9D9D9"/>
<rect width="5" height="20" transform="matrix(0.478355 -0.878167 -0.878167 -0.478355 107.563 86.958)" fill="#D9D9D9"/>
<rect width="5" height="20" transform="matrix(-0.478355 0.878167 0.878167 0.478355 13.3916 33)" fill="#D9D9D9"/>
<rect x="13.3916" y="88.958" width="5" height="20" transform="rotate(-118.578 13.3916 88.958)" fill="#D9D9D9"/>
<rect width="5" height="20" transform="matrix(-0.850726 0.525609 0.525609 0.850726 33.2539 12)" fill="#D9D9D9"/>
<rect x="90.5117" y="13" width="5" height="20" transform="rotate(31.7092 90.5117 13)" fill="#D9D9D9"/>
<rect x="6" y="62" width="5" height="20" transform="rotate(-90 6 62)" fill="#D9D9D9"/>
<rect x="95" y="62" width="5" height="20" transform="rotate(-90 95 62)" fill="#D9D9D9"/>
<path d="M94.5 98C94.5 103.523 79.7777 112 61 112C42.2223 112 25.5 103.523 25.5 98C25.5 92.4772 42.2223 92 61 92C79.7777 92 94.5 92.4772 94.5 98Z" fill="#D9D9D9"/>
</svg>
