<svg width="50" height="50" viewBox="0 0 50 50" fill="none" xmlns="http://www.w3.org/2000/svg">
<rect width="50" height="50" fill="url(#paint0_linear_541_6294)"/>
<path d="M21.3303 8.33325C19.5322 8.33325 18.073 9.76071 18.073 11.5197C18.073 12.0994 18.2326 12.6445 18.5095 13.113L19.0183 20.269C19.3081 24.3385 19.5472 27.6717 19.5484 27.675C19.5496 27.6783 21.982 27.6812 24.9538 27.6812H30.357L32.5285 32.7859C33.7226 35.5932 34.7196 37.9368 34.7448 37.9947C34.7777 38.0705 34.801 38.0964 34.8299 38.0884C40.2128 37.2771 43.2222 32.023 36.4585 34.8498C36.448 34.8497 35.4798 32.6241 34.3062 29.9035C33.1325 27.1829 32.1639 24.9474 32.1538 24.9363C32.1368 24.9176 25.3615 24.9501 23.0995 24.98L22.0946 24.9946L22.0413 24.2241C22.0113 23.8007 21.9789 23.3751 21.9711 23.2785L21.9584 23.1035H25.5946H29.233V21.7228V20.3419H25.4541H21.6752V20.2815C21.6752 20.1993 21.4069 15.3983 21.3643 14.7083C23.1468 14.6904 24.5876 13.2676 24.5876 11.5197C24.5876 9.76071 23.1284 8.33325 21.3303 8.33325ZM17.9772 20.8772L17.6685 21.0313C15.5363 22.103 13.7951 23.8764 12.7422 26.0463C12.1865 27.1915 11.8421 28.3897 11.699 29.6785C11.6558 30.067 11.6559 31.4432 11.699 31.8341C11.7166 31.994 11.7627 32.3134 11.8012 32.5443C12.4599 36.4939 15.2842 39.8006 19.0907 41.0749C19.9232 41.3536 20.7706 41.5245 21.7114 41.606C22.0771 41.6377 23.2757 41.6173 23.6424 41.5726C24.5376 41.4635 25.2408 41.3022 26.0459 41.0207C28.6248 40.1193 30.8293 38.2421 32.1006 35.8661L32.2241 35.6371L31.2767 33.6939C30.7564 32.6251 30.3255 31.751 30.3187 31.7508C30.3118 31.7506 30.2867 31.8736 30.2633 32.0257C30.1848 32.5365 30.0017 33.1922 29.7928 33.7106C29.0916 35.4509 27.7129 36.9573 26.0565 37.7926C25.4378 38.1047 25.0229 38.2689 24.4939 38.4091C22.3231 38.9843 20.0164 38.6047 18.1561 37.3678C17.6734 37.0468 17.3347 36.7691 16.9298 36.3639C15.7646 35.1979 15.0294 33.807 14.7242 32.186C14.6312 31.692 14.612 31.4418 14.6135 30.7199C14.6148 30.1192 14.6227 29.9663 14.6688 29.6661C14.9188 28.0379 15.5559 26.6633 16.619 25.4528C16.9993 25.0197 17.5579 24.5272 18.0219 24.2178C18.1315 24.1447 18.2221 24.0691 18.2221 24.0491C18.2221 23.986 18.007 21.1347 17.9921 21.0021L17.9772 20.8772Z" fill="white"/>
<defs>
<linearGradient id="paint0_linear_541_6294" x1="0" y1="25" x2="50" y2="25" gradientUnits="userSpaceOnUse">
<stop stop-color="#000"/>
<stop offset="1" stop-color="#000"/>
</linearGradient>
</defs>
</svg>
