<svg width="28" height="28" viewBox="0 0 28 28" fill="none" xmlns="http://www.w3.org/2000/svg">
<path d="M21.7778 0H6.22222C2.786 0 0 2.786 0 6.22222V21.7778C0 25.214 2.786 28 6.22222 28H14.966V17.1718H11.3213V12.9329H14.966V9.814C14.966 6.19889 17.1764 4.228 20.4027 4.228C21.49 4.22489 22.5758 4.28089 23.6569 4.39133V8.17133H21.4356C19.6778 8.17133 19.3356 9.002 19.3356 10.2278V12.9267H23.5356L22.9896 17.1656H19.3107V28H21.7778C25.214 28 28 25.214 28 21.7778V6.22222C28 2.786 25.214 0 21.7778 0Z" fill="black"/>
</svg>
