<svg width="28" height="28" viewBox="0 0 28 28" fill="none" xmlns="http://www.w3.org/2000/svg">
<path d="M14 18.6667C16.5773 18.6667 18.6666 16.5773 18.6666 14C18.6666 11.4227 16.5773 9.33334 14 9.33334C11.4227 9.33334 9.33331 11.4227 9.33331 14C9.33331 16.5773 11.4227 18.6667 14 18.6667Z" fill="black"/>
<path d="M19.8322 0H8.1655C3.66333 0 0 3.6645 0 8.16783V19.8345C0 24.3367 3.6645 28 8.16783 28H19.8345C24.3367 28 28 24.3355 28 19.8322V8.1655C28 3.66333 24.3355 0 19.8322 0ZM14 21C10.1395 21 7 17.8605 7 14C7 10.1395 10.1395 7 14 7C17.8605 7 21 10.1395 21 14C21 17.8605 17.8605 21 14 21ZM22.1667 7C21.5227 7 21 6.47733 21 5.83333C21 5.18933 21.5227 4.66667 22.1667 4.66667C22.8107 4.66667 23.3333 5.18933 23.3333 5.83333C23.3333 6.47733 22.8107 7 22.1667 7Z" fill="black"/>
</svg>
