<svg width="191" height="184" viewBox="0 0 191 184" fill="none" xmlns="http://www.w3.org/2000/svg">
<path d="M191 184C191 184 148.243 184 95.5 184C42.7568 184 0 184 0 184C0 138.713 42.7568 102 95.5 102C148.243 102 191 138.713 191 184Z" fill="#D9D9D9"/>
<circle cx="95.5" cy="47.5" r="47.5" fill="#D9D9D9"/>
<path d="M82 109H109L104.442 127H86.2078L82 109Z" fill="black"/>
<path d="M86 173H105L101.792 130H88.961L86 173Z" fill="black"/>
<path d="M86 173H105L101.792 184H88.961L86 173Z" fill="black"/>
<line x1="68" y1="58.5" x2="123" y2="58.5" stroke="black"/>
<line x1="70.5" y1="25" x2="70.5" y2="35" stroke="black"/>
<line x1="118.5" y1="26" x2="118.5" y2="38" stroke="black"/>
<line x1="56.0064" y1="20.5" x2="135.006" y2="21.5129" stroke="black"/>
<line x1="60.5" y1="21" x2="60.5" y2="38" stroke="black"/>
<line x1="82.5" y1="21" x2="82.5" y2="38" stroke="black"/>
<line x1="109.5" y1="21" x2="109.5" y2="40" stroke="black"/>
<line x1="128.5" y1="21" x2="128.5" y2="40" stroke="black"/>
<path d="M82.4849 38.5C82.1845 43.458 77.4444 47.5 71.5 47.5C65.5556 47.5 60.8155 43.458 60.5151 38.5H60.517H60.5276H60.5382H60.549H60.5598H60.5708H60.5818H60.593H60.6042H60.6156H60.627H60.6386H60.6502H60.662H60.6738H60.6858H60.6978H60.71H60.7222H60.7345H60.747H60.7595H60.7721H60.7849H60.7977H60.8106H60.8236H60.8367H60.8499H60.8632H60.8766H60.8901H60.9037H60.9174H60.9312H60.9451H60.959H60.9731H60.9873H61.0015H61.0159H61.0303H61.0449H61.0595H61.0742H61.089H61.1039H61.1189H61.134H61.1492H61.1645H61.1799H61.1953H61.2109H61.2265H61.2423H61.2581H61.274H61.29H61.3061H61.3223H61.3386H61.355H61.3714H61.388H61.4046H61.4214H61.4382H61.4551H61.4721H61.4892H61.5064H61.5236H61.541H61.5584H61.5759H61.5936H61.6113H61.6291H61.6469H61.6649H61.6829H61.7011H61.7193H61.7376H61.756H61.7745H61.7931H61.8117H61.8305H61.8493H61.8682H61.8872H61.9063H61.9254H61.9447H61.964H61.9834H62.0029H62.0225H62.0422H62.0619H62.0818H62.1017H62.1217H62.1418H62.1619H62.1822H62.2025H62.2229H62.2434H62.264H62.2846H62.3054H62.3262H62.3471H62.3681H62.3891H62.4103H62.4315H62.4528H62.4742H62.4956H62.5172H62.5388H62.5605H62.5823H62.6041H62.626H62.6481H62.6701H62.6923H62.7146H62.7369H62.7593H62.7818H62.8043H62.8269H62.8496H62.8724H62.8953H62.9182H62.9412H62.9643H62.9875H63.0107H63.034H63.0574H63.0809H63.1044H63.1281H63.1517H63.1755H63.1993H63.2233H63.2472H63.2713H63.2954H63.3196H63.3439H63.3683H63.3927H63.4172H63.4418H63.4664H63.4911H63.5159H63.5408H63.5657H63.5907H63.6158H63.6409H63.6661H63.6914H63.7167H63.7422H63.7677H63.7932H63.8189H63.8446H63.8703H63.8962H63.9221H63.9481H63.9741H64.0002H64.0264H64.0527H64.079H64.1054H64.1318H64.1583H64.1849H64.2116H64.2383H64.2651H64.292H64.3189H64.3459H64.3729H64.4H64.4272H64.4545H64.4818H64.5092H64.5366H64.5641H64.5917H64.6194H64.6471H64.6748H64.7027H64.7306H64.7585H64.7866H64.8146H64.8428H64.871H64.8993H64.9276H64.956H64.9845H65.013H65.0416H65.0702H65.0989H65.1277H65.1566H65.1854H65.2144H65.2434H65.2725H65.3016H65.3308H65.3601H65.3894H65.4187H65.4482H65.4777H65.5072H65.5368H65.5665H65.5962H65.626H65.6559H65.6858H65.7157H65.7457H65.7758H65.8059H65.8361H65.8664H65.8967H65.927H65.9574H65.9879H66.0184H66.049H66.0796H66.1103H66.1411H66.1719H66.2027H66.2336H66.2646H66.2956H66.3267H66.3578H66.389H66.4202H66.4515H66.4829H66.5143H66.5457H66.5772H66.6088H66.6404H66.672H66.7038H66.7355H66.7673H66.7992H66.8311H66.8631H66.8951H66.9272H66.9593H66.9915H67.0237H67.056H67.0883H67.1206H67.1531H67.1855H67.2181H67.2506H67.2832H67.3159H67.3486H67.3814H67.4142H67.4471H67.48H67.5129H67.5459H67.579H67.6121H67.6452H67.6784H67.7116H67.7449H67.7782H67.8116H67.845H67.8785H67.912H67.9456H67.9792H68.0128H68.0465H68.0803H68.114H68.1479H68.1817H68.2156H68.2496H68.2836H68.3176H68.3517H68.3859H68.42H68.4543H68.4885H68.5228H68.5572H68.5915H68.626H68.6604H68.695H68.7295H68.7641H68.7987H68.8334H68.8681H68.9029H68.9377H68.9725H69.0074H69.0423H69.0772H69.1122H69.1473H69.1823H69.2175H69.2526H69.2878H69.323H69.3583H69.3936H69.4289H69.4643H69.4997H69.5352H69.5707H69.6062H69.6418H69.6774H69.713H69.7487H69.7844H69.8201H69.8559H69.8917H69.9276H69.9634H69.9994H70.0353H70.0713H70.1073H70.1434H70.1795H70.2156H70.2518H70.288H70.3242H70.3605H70.3967H70.4331H70.4694H70.5058H70.5422H70.5787H70.6152H70.6517H70.6883H70.7248H70.7614H70.7981H70.8348H70.8715H70.9082H70.945H70.9818H71.0186H71.0555H71.0923H71.1293H71.1662H71.2032H71.2402H71.2772H71.3143H71.3514H71.3885H71.4256H71.4628H71.5H71.5372H71.5744H71.6115H71.6486H71.6857H71.7228H71.7598H71.7968H71.8338H71.8707H71.9077H71.9445H71.9814H72.0182H72.055H72.0918H72.1285H72.1652H72.2019H72.2386H72.2752H72.3117H72.3483H72.3848H72.4213H72.4578H72.4942H72.5306H72.5669H72.6033H72.6395H72.6758H72.712H72.7482H72.7844H72.8205H72.8566H72.8927H72.9287H72.9647H73.0006H73.0366H73.0724H73.1083H73.1441H73.1799H73.2156H73.2513H73.287H73.3226H73.3582H73.3938H73.4293H73.4648H73.5003H73.5357H73.5711H73.6064H73.6417H73.677H73.7122H73.7474H73.7825H73.8177H73.8527H73.8878H73.9228H73.9577H73.9926H74.0275H74.0623H74.0971H74.1319H74.1666H74.2013H74.2359H74.2705H74.305H74.3396H74.374H74.4085H74.4428H74.4772H74.5115H74.5457H74.58H74.6141H74.6483H74.6824H74.7164H74.7504H74.7844H74.8183H74.8521H74.886H74.9197H74.9535H74.9872H75.0208H75.0544H75.088H75.1215H75.155H75.1884H75.2218H75.2551H75.2884H75.3216H75.3548H75.3879H75.421H75.4541H75.4871H75.52H75.5529H75.5858H75.6186H75.6514H75.6841H75.7168H75.7494H75.7819H75.8145H75.8469H75.8794H75.9117H75.944H75.9763H76.0085H76.0407H76.0728H76.1049H76.1369H76.1689H76.2008H76.2327H76.2645H76.2962H76.328H76.3596H76.3912H76.4228H76.4543H76.4857H76.5171H76.5485H76.5798H76.611H76.6422H76.6733H76.7044H76.7354H76.7664H76.7973H76.8281H76.8589H76.8897H76.9204H76.951H76.9816H77.0121H77.0426H77.073H77.1033H77.1336H77.1639H77.1941H77.2242H77.2543H77.2843H77.3142H77.3441H77.374H77.4038H77.4335H77.4632H77.4928H77.5223H77.5518H77.5812H77.6106H77.6399H77.6692H77.6984H77.7275H77.7566H77.7856H77.8146H77.8434H77.8723H77.9011H77.9298H77.9584H77.987H78.0155H78.044H78.0724H78.1007H78.129H78.1572H78.1854H78.2134H78.2415H78.2694H78.2973H78.3252H78.3529H78.3806H78.4083H78.4359H78.4634H78.4908H78.5182H78.5455H78.5728H78.6H78.6271H78.6541H78.6811H78.708H78.7349H78.7617H78.7884H78.8151H78.8417H78.8682H78.8946H78.921H78.9473H78.9736H78.9998H79.0259H79.0519H79.0779H79.1038H79.1297H79.1554H79.1811H79.2068H79.2323H79.2578H79.2833H79.3086H79.3339H79.3591H79.3842H79.4093H79.4343H79.4592H79.4841H79.5089H79.5336H79.5582H79.5828H79.6073H79.6317H79.6561H79.6804H79.7046H79.7287H79.7528H79.7767H79.8007H79.8245H79.8483H79.8719H79.8956H79.9191H79.9426H79.966H79.9893H80.0125H80.0357H80.0588H80.0818H80.1047H80.1276H80.1504H80.1731H80.1957H80.2182H80.2407H80.2631H80.2854H80.3077H80.3299H80.3519H80.374H80.3959H80.4177H80.4395H80.4612H80.4828H80.5044H80.5258H80.5472H80.5685H80.5897H80.6109H80.6319H80.6529H80.6738H80.6946H80.7154H80.736H80.7566H80.7771H80.7975H80.8178H80.8381H80.8582H80.8783H80.8983H80.9182H80.9381H80.9578H80.9775H80.9971H81.0166H81.036H81.0553H81.0746H81.0937H81.1128H81.1318H81.1507H81.1695H81.1883H81.2069H81.2255H81.244H81.2624H81.2807H81.2989H81.3171H81.3351H81.3531H81.3709H81.3887H81.4064H81.4241H81.4416H81.459H81.4764H81.4936H81.5108H81.5279H81.5449H81.5618H81.5786H81.5954H81.612H81.6286H81.645H81.6614H81.6777H81.6939H81.71H81.726H81.7419H81.7577H81.7735H81.7891H81.8047H81.8201H81.8355H81.8508H81.866H81.8811H81.8961H81.911H81.9258H81.9405H81.9551H81.9697H81.9841H81.9985H82.0127H82.0269H82.041H82.0549H82.0688H82.0826H82.0963H82.1099H82.1234H82.1368H82.1501H82.1633H82.1764H82.1894H82.2023H82.2151H82.2279H82.2405H82.253H82.2655H82.2778H82.29H82.3022H82.3142H82.3262H82.338H82.3498H82.3614H82.373H82.3844H82.3958H82.407H82.4182H82.4292H82.4402H82.451H82.4618H82.4724H82.483H82.4849Z" stroke="black"/>
<path d="M128.487 40.5C128.227 45.5143 124.079 49.5 119 49.5C113.921 49.5 109.773 45.5143 109.513 40.5H109.516H109.525H109.535H109.545H109.555H109.565H109.576H109.586H109.596H109.607H109.617H109.628H109.639H109.65H109.66H109.671H109.682H109.694H109.705H109.716H109.728H109.739H109.751H109.762H109.774H109.786H109.798H109.81H109.822H109.834H109.846H109.858H109.871H109.883H109.896H109.909H109.921H109.934H109.947H109.96H109.973H109.986H109.999H110.013H110.026H110.039H110.053H110.067H110.08H110.094H110.108H110.122H110.136H110.15H110.164H110.178H110.193H110.207H110.221H110.236H110.251H110.265H110.28H110.295H110.31H110.325H110.34H110.355H110.37H110.386H110.401H110.417H110.432H110.448H110.463H110.479H110.495H110.511H110.527H110.543H110.559H110.575H110.592H110.608H110.625H110.641H110.658H110.674H110.691H110.708H110.725H110.742H110.759H110.776H110.793H110.81H110.828H110.845H110.862H110.88H110.898H110.915H110.933H110.951H110.969H110.987H111.005H111.023H111.041H111.059H111.078H111.096H111.114H111.133H111.151H111.17H111.189H111.208H111.227H111.245H111.264H111.284H111.303H111.322H111.341H111.36H111.38H111.399H111.419H111.439H111.458H111.478H111.498H111.518H111.538H111.558H111.578H111.598H111.618H111.638H111.659H111.679H111.7H111.72H111.741H111.761H111.782H111.803H111.824H111.845H111.866H111.887H111.908H111.929H111.95H111.971H111.993H112.014H112.036H112.057H112.079H112.101H112.122H112.144H112.166H112.188H112.21H112.232H112.254H112.276H112.298H112.321H112.343H112.366H112.388H112.411H112.433H112.456H112.478H112.501H112.524H112.547H112.57H112.593H112.616H112.639H112.662H112.685H112.709H112.732H112.756H112.779H112.803H112.826H112.85H112.873H112.897H112.921H112.945H112.969H112.993H113.017H113.041H113.065H113.089H113.114H113.138H113.162H113.187H113.211H113.236H113.26H113.285H113.31H113.334H113.359H113.384H113.409H113.434H113.459H113.484H113.509H113.534H113.559H113.585H113.61H113.635H113.661H113.686H113.712H113.738H113.763H113.789H113.815H113.84H113.866H113.892H113.918H113.944H113.97H113.996H114.022H114.049H114.075H114.101H114.128H114.154H114.18H114.207H114.233H114.26H114.287H114.313H114.34H114.367H114.394H114.421H114.447H114.474H114.501H114.529H114.556H114.583H114.61H114.637H114.665H114.692H114.719H114.747H114.774H114.802H114.829H114.857H114.885H114.912H114.94H114.968H114.996H115.024H115.052H115.08H115.108H115.136H115.164H115.192H115.22H115.248H115.277H115.305H115.333H115.362H115.39H115.419H115.447H115.476H115.504H115.533H115.562H115.59H115.619H115.648H115.677H115.706H115.735H115.764H115.793H115.822H115.851H115.88H115.909H115.938H115.968H115.997H116.026H116.056H116.085H116.115H116.144H116.174H116.203H116.233H116.262H116.292H116.322H116.352H116.381H116.411H116.441H116.471H116.501H116.531H116.561H116.591H116.621H116.651H116.681H116.711H116.742H116.772H116.802H116.833H116.863H116.893H116.924H116.954H116.985H117.015H117.046H117.076H117.107H117.138H117.168H117.199H117.23H117.261H117.291H117.322H117.353H117.384H117.415H117.446H117.477H117.508H117.539H117.57H117.601H117.633H117.664H117.695H117.726H117.758H117.789H117.82H117.852H117.883H117.915H117.946H117.978H118.009H118.041H118.072H118.104H118.135H118.167H118.199H118.231H118.262H118.294H118.326H118.358H118.39H118.422H118.453H118.485H118.517H118.549H118.581H118.613H118.646H118.678H118.71H118.742H118.774H118.806H118.839H118.871H118.903H118.935H118.968H119H119.032H119.065H119.097H119.129H119.161H119.194H119.226H119.258H119.29H119.322H119.354H119.387H119.419H119.451H119.483H119.515H119.547H119.578H119.61H119.642H119.674H119.706H119.738H119.769H119.801H119.833H119.865H119.896H119.928H119.959H119.991H120.022H120.054H120.085H120.117H120.148H120.18H120.211H120.242H120.274H120.305H120.336H120.367H120.399H120.43H120.461H120.492H120.523H120.554H120.585H120.616H120.647H120.678H120.709H120.739H120.77H120.801H120.832H120.862H120.893H120.924H120.954H120.985H121.015H121.046H121.076H121.107H121.137H121.167H121.198H121.228H121.258H121.289H121.319H121.349H121.379H121.409H121.439H121.469H121.499H121.529H121.559H121.589H121.619H121.648H121.678H121.708H121.738H121.767H121.797H121.826H121.856H121.885H121.915H121.944H121.974H122.003H122.032H122.062H122.091H122.12H122.149H122.178H122.207H122.236H122.265H122.294H122.323H122.352H122.381H122.41H122.438H122.467H122.496H122.524H122.553H122.581H122.61H122.638H122.667H122.695H122.723H122.752H122.78H122.808H122.836H122.864H122.892H122.92H122.948H122.976H123.004H123.032H123.06H123.088H123.115H123.143H123.171H123.198H123.226H123.253H123.281H123.308H123.335H123.363H123.39H123.417H123.444H123.471H123.499H123.526H123.553H123.579H123.606H123.633H123.66H123.687H123.713H123.74H123.767H123.793H123.82H123.846H123.872H123.899H123.925H123.951H123.978H124.004H124.03H124.056H124.082H124.108H124.134H124.16H124.185H124.211H124.237H124.262H124.288H124.314H124.339H124.365H124.39H124.415H124.441H124.466H124.491H124.516H124.541H124.566H124.591H124.616H124.641H124.666H124.69H124.715H124.74H124.764H124.789H124.813H124.838H124.862H124.886H124.911H124.935H124.959H124.983H125.007H125.031H125.055H125.079H125.103H125.127H125.15H125.174H125.197H125.221H125.244H125.268H125.291H125.315H125.338H125.361H125.384H125.407H125.43H125.453H125.476H125.499H125.522H125.544H125.567H125.589H125.612H125.634H125.657H125.679H125.702H125.724H125.746H125.768H125.79H125.812H125.834H125.856H125.878H125.899H125.921H125.943H125.964H125.986H126.007H126.029H126.05H126.071H126.092H126.113H126.134H126.155H126.176H126.197H126.218H126.239H126.259H126.28H126.3H126.321H126.341H126.362H126.382H126.402H126.422H126.442H126.462H126.482H126.502H126.522H126.542H126.561H126.581H126.601H126.62H126.64H126.659H126.678H126.697H126.716H126.736H126.755H126.773H126.792H126.811H126.83H126.849H126.867H126.886H126.904H126.922H126.941H126.959H126.977H126.995H127.013H127.031H127.049H127.067H127.085H127.102H127.12H127.138H127.155H127.172H127.19H127.207H127.224H127.241H127.258H127.275H127.292H127.309H127.326H127.342H127.359H127.375H127.392H127.408H127.425H127.441H127.457H127.473H127.489H127.505H127.521H127.537H127.552H127.568H127.583H127.599H127.614H127.63H127.645H127.66H127.675H127.69H127.705H127.72H127.735H127.749H127.764H127.779H127.793H127.807H127.822H127.836H127.85H127.864H127.878H127.892H127.906H127.92H127.933H127.947H127.961H127.974H127.987H128.001H128.014H128.027H128.04H128.053H128.066H128.079H128.091H128.104H128.117H128.129H128.142H128.154H128.166H128.178H128.19H128.202H128.214H128.226H128.238H128.249H128.261H128.272H128.284H128.295H128.306H128.318H128.329H128.34H128.35H128.361H128.372H128.383H128.393H128.404H128.414H128.424H128.435H128.445H128.455H128.465H128.475H128.484H128.487Z" stroke="black"/>
</svg>
