<svg width="28" height="28" viewBox="0 0 28 28" fill="none" xmlns="http://www.w3.org/2000/svg">
<path d="M24 0H4C2.162 0 0 2.162 0 4V24C0 25.838 2.162 28 4 28H24C25.838 28 28 25.838 28 24V4C28 2.162 25.838 0 24 0ZM22.004 12.2153C21.8527 12.2293 21.6993 12.2387 21.544 12.2387C19.7953 12.2387 18.2587 11.3393 17.3647 9.98C17.3647 13.546 17.3647 17.6033 17.3647 17.6713C17.3647 20.8107 14.8193 23.356 11.68 23.356C8.54067 23.356 5.99533 20.8107 5.99533 17.6713C5.99533 14.532 8.54067 11.9867 11.68 11.9867C11.7987 11.9867 11.9147 11.9973 12.0313 12.0047V14.806C11.9147 14.792 11.8 14.7707 11.68 14.7707C10.0773 14.7707 8.77867 16.0693 8.77867 17.672C8.77867 19.2747 10.0773 20.5733 11.68 20.5733C13.2827 20.5733 14.698 19.3107 14.698 17.708C14.698 17.6447 14.726 4.64533 14.726 4.64533H17.4033C17.6553 7.03933 19.588 8.92867 22.004 9.102V12.2153Z" fill="black"/>
</svg>
